Coordinates
version=1
nRows=11
nColumns=36
inDegrees=yes

Units are S.I. units (second, meters, Newtons, ...)
If the header above contains a line with 'inDegrees', this indicates whether rotational values are in degrees (yes) or radians (no).

endheader
time	pelvis_tilt	pelvis_list	pelvis_rotation	pelvis_tx	pelvis_ty	pelvis_tz	hip_flexion_r	hip_adduction_r	hip_rotation_r	knee_angle_r	knee_angle_r_beta	ankle_angle_r	subtalar_angle_r	mtp_angle_r	hip_flexion_l	hip_adduction_l	hip_rotation_l	knee_angle_l	knee_angle_l_beta	ankle_angle_l	subtalar_angle_l	mtp_angle_l	lumbar_extension	lumbar_bending	lumbar_rotation	arm_flex_r	arm_add_r	arm_rot_r	elbow_flex_r	pro_sup_r	arm_flex_l	arm_add_l	arm_rot_l	elbow_flex_l	pro_sup_l
      0.00000000	      4.80212521	     -1.03289898	      5.55449025	      0.45699307	      1.25657975	     -0.22086925	     -7.98585988	      1.72375692	      5.07262193	      3.82820609	      0.06681480	      5.68362571	     -7.33083743	     -6.86526459	     -8.78091573	     -1.50138138	     -0.15976495	      2.07558784	      0.03622584	     12.29074657	     -1.44009561	     -6.86526459	     -4.62425402	      1.75253846	     -1.03376990	     -0.56756690	     -9.46747164	      0.28228862	     22.01508604	     93.59226362	      2.08495564	    -10.45811754	      5.61566928	     16.46325751	     93.24466043
      0.01666670	      3.84345494	     -0.58865963	      5.09363769	      0.45528162	      1.25385985	     -0.22171174	     -7.40412428	      0.90427747	      6.03145374	      2.95915755	      0.05164704	      7.03819076	     -6.74973608	     -6.91500042	     -8.10258123	     -0.73112299	     -1.04887198	      1.04302904	      0.01820429	     11.71416524	     -1.54141819	     -6.91500042	     -3.42290592	      1.27070952	     -1.21600420	      0.11831880	     -9.68358159	      1.96996597	     20.68521743	     96.61471697	      1.29260715	    -10.43945082	      4.38582333	     16.77231480	     94.79830081
      0.03333330	      4.43930641	     -0.50646476	      5.03083329	      0.45360326	      1.25804274	     -0.22152935	     -7.80502863	      0.88094789	      6.15222638	      3.25689705	      0.05684358	      7.66722739	     -5.79672727	     -7.32771162	     -8.77072073	     -0.57099304	     -2.01756228	      0.71429748	      0.01246684	     11.18781426	     -1.93966222	     -7.32771162	     -4.34996918	      1.26309175	     -1.49707774	      0.75295750	     -9.90390969	      3.10441758	     20.31915856	     99.05415018	      1.74642581	    -10.45472307	      3.89707826	     16.63414331	     96.46295132
      0.05000000	      5.43264010	     -0.31633503	      4.83119844	      0.45034315	      1.25892923	     -0.22186291	     -8.61098639	      0.66471476	      5.81295324	      3.52305212	      0.06148886	      8.03299017	     -5.03766870	     -7.44752058	     -9.66734602	     -0.33043228	     -2.90090953	      0.62248157	      0.01086435	     10.85523094	     -2.22801636	     -7.44752058	     -5.80884784	      1.19423022	     -1.57965834	      1.49182540	    -10.11540854	      4.08302782	     19.78805055	    100.01196246	      2.35020586	    -10.43118459	      3.68241383	     16.71796312	     97.43864044
      0.06666670	      6.52209045	     -0.11034335	      4.55575452	      0.44817870	      1.26047740	     -0.22169805	     -9.48228092	      0.50451053	      5.95419162	      3.88264983	      0.06776502	      8.53247083	     -4.73214060	     -7.49067189	    -10.70080982	     -0.09268049	     -3.56195249	      0.56738429	      0.00990272	     10.52125269	     -2.36333458	     -7.49067189	     -7.36817889	      1.04728967	     -1.33179970	      2.10511547	    -10.23394374	      5.01167909	     19.36253825	    100.40215034	      3.05359891	    -10.44234977	      4.15609336	     16.65712716	     97.88329946
      0.08333330	      7.15807374	      0.03116441	      4.30671288	      0.44607771	      1.26411788	     -0.22160708	     -9.83288493	      0.37079829	      5.99091132	      4.49139092	      0.07838956	      8.74004591	     -4.80638521	     -7.49075451	    -11.30432294	      0.06959855	     -4.06873469	      0.55709646	      0.00972317	     10.07688312	     -2.46436719	     -7.49075451	     -8.34554582	      0.91323345	     -1.28415646	      2.38084196	    -10.23592203	      5.07958463	     19.39416874	    100.43172516	      3.37643769	    -10.48789729	      4.18616835	     16.73112322	     97.92819030
      0.10000000	      7.88274817	      0.16652380	      4.14813326	      0.44495207	      1.26185168	     -0.22112675	    -10.49222577	      0.24449714	      6.00916620	      4.73976252	      0.08272446	      8.80681711	     -4.92640302	     -7.49298367	    -12.05921925	      0.17530034	     -4.41102773	      0.53026109	      0.00925480	      9.82142994	     -2.52657928	     -7.49298367	     -9.45357915	      0.73155867	     -1.03107738	      2.58835196	    -10.36678319	      6.64437913	     19.31194094	     98.10957223	      3.83803800	    -10.63331650	      5.28325659	     16.68794098	     95.94440002
      0.11666670	      8.25893021	      0.30638030	      4.05973415	      0.44372053	      1.26219314	     -0.22098494	    -10.75070991	      0.10408959	      5.96944928	      4.96343365	      0.08662826	      8.85665620	     -4.92599443	     -7.49480685	    -12.44385766	      0.29461257	     -4.54327035	      0.51588309	      0.00900386	      9.68531825	     -2.44208990	     -7.49480685	    -10.14819386	      0.51929696	     -1.05278864	      2.64136894	    -10.53252511	      7.87960066	     19.62605134	     99.22932169	      3.84158564	    -10.98532514	      6.10858188	     17.34815015	     97.55069806
      0.13333330	      8.49780550	      0.33344226	      4.04440144	      0.44351855	      1.26554901	     -0.22080899	    -10.94360280	      0.10322997	      6.12301757	      5.02878572	      0.08776887	      8.74807834	     -5.13104647	     -7.49618566	    -12.67267313	      0.27741956	     -4.70510009	      0.50712840	      0.00885106	      9.39568149	     -2.57711813	     -7.49618566	    -10.64811117	      0.43145469	     -0.93873399	      2.73455078	    -10.50609934	      8.34478646	     19.51709854	     96.27678192	      4.05001401	    -10.96281510	      6.46723398	     17.22634994	     94.75018637
      0.15000000	      8.67518156	      0.37211066	      4.05683959	      0.44263961	      1.26257366	     -0.22069602	    -11.03780522	      0.10131718	      6.15972694	      5.14462276	      0.08979061	      8.68073013	     -5.21889639	     -7.49803118	    -12.85707995	      0.28008681	     -4.88498176	      0.49180878	      0.00858368	      9.26100651	     -2.48571331	     -7.49803118	    -11.11302494	      0.34911325	     -0.99030616	      2.60203157	    -10.48122580	      7.19822575	     20.16789595	    100.73500288	      3.85233390	    -11.06972652	      4.78033523	     18.10307529	     99.81136923
      0.16666670	      8.81571859	      0.37847684	      4.00247086	      0.44350446	      1.26576496	     -0.22030526	    -11.13247883	      0.13424990	      6.23395726	      5.20519679	      0.09084782	      8.51460489	     -5.36691011	     -7.49841849	    -12.96740909	      0.26047748	     -4.82047121	      0.48503342	      0.00846543	      9.09742094	     -2.67310162	     -7.49841849	    -11.44043649	      0.28404193	     -0.89044582	      2.74569709	    -10.52130462	      7.88655213	     20.18046174	     98.41787284	      3.88107727	    -11.12184131	      5.27814481	     18.12192409	     97.56533585
